<?xml version="1.0" ?><svg viewBox="0 0 64 64" xmlns="http://www.w3.org/2000/svg"><defs><style>.cls-1{fill:#d9387c;}.cls-2{fill:#dd5891;}.cls-3{fill:#f7f8fa;}</style></defs><g id="Crab"><path class="cls-1" d="M17.62,30.19l-3.76-.68a1.83,1.83,0,0,0-.47,0,2,2,0,0,0-1.26.55L9.22,32.79A2,2,0,0,0,12,35.69l2.17-2.06,2.75.49.22,2.82-4,1.45a2,2,0,0,0-1.2,1.21l-1.15,3.25a2,2,0,1,0,3.77,1.33l.84-2.35,2.94-1.07L20,43.56,17.5,45a2,2,0,0,0-1,1.57l-.28,3.1a2,2,0,0,0,4,.37l.19-2.05L23,46.49Z" id="path220714-8"/><path class="cls-1" d="M46.38,30.19l3.76-.68a1.83,1.83,0,0,1,.47,0,2,2,0,0,1,1.26.55l2.91,2.76A2,2,0,0,1,52,35.69l-2.17-2.06-2.75.49-.22,2.82,4,1.45a2,2,0,0,1,1.2,1.21l1.15,3.25a2,2,0,0,1-3.77,1.33l-.84-2.35-2.94-1.07L44,43.56,46.5,45a2,2,0,0,1,1,1.57l.28,3.1a2,2,0,0,1-4,.37l-.19-2.05L41,46.49Z" id="path221205-7"/><path class="cls-1" d="M18.5,28.53l-3-3,3.13-2.68,3,3Z" id="path218554-2"/><path class="cls-1" d="M45.5,28.53l3-3-3.12-2.68-3,3Z" id="path218637-4"/><path class="cls-2" d="M29,24c1-.08,2-.12,3.05-.12.82,0,1.63,0,2.42.07l4.32.58c4.95,1.14,8.36,4,8.36,9.87h0a15.1,15.1,0,0,1-30.2,0c0-5.68,3.13-8.49,7.75-9.72Z" id="path221908-9"/><path class="cls-2" d="M16.74,12.47a2.3,2.3,0,0,0-.49-.2c-2.74-.73-6.47,4.3-7.2,7A5.13,5.13,0,1,0,19,22C19.65,19.4,19.07,13.77,16.74,12.47Z" id="path517596-0-6"/><path class="cls-2" d="M47.26,12.47a2.1,2.1,0,0,1,.49-.2c2.73-.73,6.46,4.3,7.2,7A5.13,5.13,0,0,1,45,22C44.34,19.4,44.93,13.77,47.26,12.47Z" id="path218641-5"/><path class="cls-3" d="M29,24.2A2.21,2.21,0,1,1,26.78,22,2.21,2.21,0,0,1,29,24.2Z" id="path221794-2"/><path class="cls-3" d="M38.78,24.2a2.21,2.21,0,1,1-2.2-2.2A2.21,2.21,0,0,1,38.78,24.2Z" id="path221899-7"/><path class="cls-1" d="M16.44,11.54a1,1,0,0,0-.57.52s-.61,1.28-1.2,2.89a13.23,13.23,0,0,0-1.06,5.18,1,1,0,0,0,1.07.92h0A1,1,0,0,0,15.6,20h0a13.51,13.51,0,0,1,1-4.35c.55-1.51,1.12-2.71,1.12-2.71a1,1,0,0,0-.47-1.33A1,1,0,0,0,16.44,11.54Z" id="path518141-6"/><path class="cls-1" d="M47.56,11.54a1,1,0,0,0-1.24,1.38s.58,1.2,1.13,2.71A13.51,13.51,0,0,1,48.4,20a1,1,0,0,0,.91,1.07h0a1,1,0,0,0,1.07-.92h0A13.41,13.41,0,0,0,49.33,15c-.59-1.61-1.2-2.89-1.2-2.89A1,1,0,0,0,47.56,11.54Z" id="path218643"/></g></svg>
